<mxfile host="app.diagrams.net" agent="Mozilla/5.0 (Windows NT 10.0; Win64; x64) AppleWebKit/537.36 (KHTML, like Gecko) Chrome/134.0.0.0 Safari/537.36" version="26.1.1">
  <diagram name="PÃ¡gina-1" id="iPGLQjqR55WDtVFaK2ru">
    <mxGraphModel dx="1134" dy="637" grid="1" gridSize="10" guides="1" tooltips="1" connect="1" arrows="1" fold="1" page="1" pageScale="1" pageWidth="1654" pageHeight="2336" math="0" shadow="0">
      <root>
        <mxCell id="0" />
        <mxCell id="1" parent="0" />
        <mxCell id="8Rmx1LLZE_sqg1d1QiVR-17" style="edgeStyle=orthogonalEdgeStyle;rounded=0;orthogonalLoop=1;jettySize=auto;html=1;exitX=0.75;exitY=0.1;exitDx=0;exitDy=0;exitPerimeter=0;entryX=0;entryY=1;entryDx=0;entryDy=0;" edge="1" parent="1" source="8Rmx1LLZE_sqg1d1QiVR-2" target="8Rmx1LLZE_sqg1d1QiVR-7">
          <mxGeometry relative="1" as="geometry">
            <mxPoint x="240" y="550" as="targetPoint" />
            <Array as="points">
              <mxPoint x="350" y="436" />
              <mxPoint x="350" y="130" />
              <mxPoint x="454" y="130" />
            </Array>
          </mxGeometry>
        </mxCell>
        <mxCell id="8Rmx1LLZE_sqg1d1QiVR-23" style="edgeStyle=orthogonalEdgeStyle;rounded=0;orthogonalLoop=1;jettySize=auto;html=1;exitX=0.5;exitY=0.5;exitDx=0;exitDy=0;exitPerimeter=0;entryX=0;entryY=0.5;entryDx=0;entryDy=0;" edge="1" parent="1" source="8Rmx1LLZE_sqg1d1QiVR-2" target="8Rmx1LLZE_sqg1d1QiVR-12">
          <mxGeometry relative="1" as="geometry">
            <Array as="points">
              <mxPoint x="145" y="510" />
              <mxPoint x="320" y="510" />
              <mxPoint x="320" y="555" />
            </Array>
          </mxGeometry>
        </mxCell>
        <mxCell id="8Rmx1LLZE_sqg1d1QiVR-24" style="edgeStyle=orthogonalEdgeStyle;rounded=0;orthogonalLoop=1;jettySize=auto;html=1;exitX=0.5;exitY=0.5;exitDx=0;exitDy=0;exitPerimeter=0;entryX=0;entryY=0.5;entryDx=0;entryDy=0;" edge="1" parent="1" source="8Rmx1LLZE_sqg1d1QiVR-2" target="8Rmx1LLZE_sqg1d1QiVR-13">
          <mxGeometry relative="1" as="geometry" />
        </mxCell>
        <mxCell id="8Rmx1LLZE_sqg1d1QiVR-25" style="edgeStyle=orthogonalEdgeStyle;rounded=0;orthogonalLoop=1;jettySize=auto;html=1;exitX=0.5;exitY=0.5;exitDx=0;exitDy=0;exitPerimeter=0;entryX=0;entryY=0.5;entryDx=0;entryDy=0;" edge="1" parent="1" source="8Rmx1LLZE_sqg1d1QiVR-2" target="8Rmx1LLZE_sqg1d1QiVR-14">
          <mxGeometry relative="1" as="geometry">
            <Array as="points">
              <mxPoint x="145" y="500" />
              <mxPoint x="325" y="500" />
              <mxPoint x="325" y="590" />
              <mxPoint x="630" y="590" />
            </Array>
          </mxGeometry>
        </mxCell>
        <mxCell id="8Rmx1LLZE_sqg1d1QiVR-27" style="edgeStyle=orthogonalEdgeStyle;rounded=0;orthogonalLoop=1;jettySize=auto;html=1;exitX=0.5;exitY=0.5;exitDx=0;exitDy=0;exitPerimeter=0;entryX=0;entryY=0.5;entryDx=0;entryDy=0;" edge="1" parent="1" source="8Rmx1LLZE_sqg1d1QiVR-2" target="8Rmx1LLZE_sqg1d1QiVR-15">
          <mxGeometry relative="1" as="geometry">
            <Array as="points">
              <mxPoint x="145" y="480" />
              <mxPoint x="290" y="480" />
              <mxPoint x="290" y="380" />
              <mxPoint x="880" y="380" />
            </Array>
          </mxGeometry>
        </mxCell>
        <mxCell id="8Rmx1LLZE_sqg1d1QiVR-2" value="administrador" style="shape=umlActor;verticalLabelPosition=bottom;verticalAlign=top;html=1;" vertex="1" parent="1">
          <mxGeometry x="50" y="390" width="30" height="60" as="geometry" />
        </mxCell>
        <mxCell id="8Rmx1LLZE_sqg1d1QiVR-31" style="edgeStyle=orthogonalEdgeStyle;rounded=0;orthogonalLoop=1;jettySize=auto;html=1;exitX=0.5;exitY=0.5;exitDx=0;exitDy=0;exitPerimeter=0;entryX=0;entryY=0.5;entryDx=0;entryDy=0;" edge="1" parent="1" source="8Rmx1LLZE_sqg1d1QiVR-3" target="8Rmx1LLZE_sqg1d1QiVR-30">
          <mxGeometry relative="1" as="geometry" />
        </mxCell>
        <mxCell id="8Rmx1LLZE_sqg1d1QiVR-3" value="alumno" style="shape=umlActor;verticalLabelPosition=bottom;verticalAlign=top;html=1;" vertex="1" parent="1">
          <mxGeometry x="130" y="580" width="30" height="60" as="geometry" />
        </mxCell>
        <mxCell id="8Rmx1LLZE_sqg1d1QiVR-16" style="edgeStyle=orthogonalEdgeStyle;rounded=0;orthogonalLoop=1;jettySize=auto;html=1;exitX=1;exitY=0.3333333333333333;exitDx=0;exitDy=0;exitPerimeter=0;entryX=0;entryY=1;entryDx=0;entryDy=0;" edge="1" parent="1" source="8Rmx1LLZE_sqg1d1QiVR-4" target="8Rmx1LLZE_sqg1d1QiVR-7">
          <mxGeometry relative="1" as="geometry">
            <Array as="points">
              <mxPoint x="260" y="290" />
              <mxPoint x="260" y="125" />
              <mxPoint x="364" y="125" />
            </Array>
          </mxGeometry>
        </mxCell>
        <mxCell id="8Rmx1LLZE_sqg1d1QiVR-19" style="edgeStyle=orthogonalEdgeStyle;rounded=0;orthogonalLoop=1;jettySize=auto;html=1;exitX=0.5;exitY=0.5;exitDx=0;exitDy=0;exitPerimeter=0;" edge="1" parent="1" source="8Rmx1LLZE_sqg1d1QiVR-4" target="8Rmx1LLZE_sqg1d1QiVR-9">
          <mxGeometry relative="1" as="geometry" />
        </mxCell>
        <mxCell id="8Rmx1LLZE_sqg1d1QiVR-20" style="edgeStyle=orthogonalEdgeStyle;rounded=0;orthogonalLoop=1;jettySize=auto;html=1;exitX=0.5;exitY=0.5;exitDx=0;exitDy=0;exitPerimeter=0;entryX=0;entryY=1;entryDx=0;entryDy=0;" edge="1" parent="1" source="8Rmx1LLZE_sqg1d1QiVR-4" target="8Rmx1LLZE_sqg1d1QiVR-9">
          <mxGeometry relative="1" as="geometry" />
        </mxCell>
        <mxCell id="8Rmx1LLZE_sqg1d1QiVR-22" style="edgeStyle=orthogonalEdgeStyle;rounded=0;orthogonalLoop=1;jettySize=auto;html=1;exitX=0.5;exitY=0.5;exitDx=0;exitDy=0;exitPerimeter=0;entryX=0;entryY=0.5;entryDx=0;entryDy=0;" edge="1" parent="1" source="8Rmx1LLZE_sqg1d1QiVR-4" target="8Rmx1LLZE_sqg1d1QiVR-11">
          <mxGeometry relative="1" as="geometry" />
        </mxCell>
        <mxCell id="8Rmx1LLZE_sqg1d1QiVR-26" style="edgeStyle=orthogonalEdgeStyle;rounded=0;orthogonalLoop=1;jettySize=auto;html=1;exitX=0.5;exitY=0.5;exitDx=0;exitDy=0;exitPerimeter=0;" edge="1" parent="1" source="8Rmx1LLZE_sqg1d1QiVR-4" target="8Rmx1LLZE_sqg1d1QiVR-15">
          <mxGeometry relative="1" as="geometry">
            <Array as="points">
              <mxPoint x="260" y="300" />
              <mxPoint x="260" y="370" />
              <mxPoint x="950" y="370" />
            </Array>
          </mxGeometry>
        </mxCell>
        <mxCell id="8Rmx1LLZE_sqg1d1QiVR-4" value="profesor" style="shape=umlActor;verticalLabelPosition=bottom;verticalAlign=top;html=1;" vertex="1" parent="1">
          <mxGeometry x="130" y="270" width="30" height="60" as="geometry" />
        </mxCell>
        <mxCell id="8Rmx1LLZE_sqg1d1QiVR-29" style="edgeStyle=orthogonalEdgeStyle;rounded=0;orthogonalLoop=1;jettySize=auto;html=1;exitX=0.5;exitY=0.5;exitDx=0;exitDy=0;exitPerimeter=0;entryX=0;entryY=0.5;entryDx=0;entryDy=0;" edge="1" parent="1" source="8Rmx1LLZE_sqg1d1QiVR-5" target="8Rmx1LLZE_sqg1d1QiVR-28">
          <mxGeometry relative="1" as="geometry">
            <Array as="points">
              <mxPoint x="145" y="840" />
              <mxPoint x="440" y="840" />
              <mxPoint x="440" y="845" />
            </Array>
          </mxGeometry>
        </mxCell>
        <mxCell id="8Rmx1LLZE_sqg1d1QiVR-5" value="padre" style="shape=umlActor;verticalLabelPosition=bottom;verticalAlign=top;html=1;" vertex="1" parent="1">
          <mxGeometry x="130" y="720" width="30" height="60" as="geometry" />
        </mxCell>
        <mxCell id="8Rmx1LLZE_sqg1d1QiVR-7" value="iniciar sesion" style="ellipse;whiteSpace=wrap;html=1;" vertex="1" parent="1">
          <mxGeometry x="440" y="50" width="100" height="30" as="geometry" />
        </mxCell>
        <mxCell id="8Rmx1LLZE_sqg1d1QiVR-8" value="registrar entrada de estudiante&amp;nbsp;" style="ellipse;whiteSpace=wrap;html=1;" vertex="1" parent="1">
          <mxGeometry x="450" y="170" width="140" height="40" as="geometry" />
        </mxCell>
        <mxCell id="8Rmx1LLZE_sqg1d1QiVR-9" value="registrar salida de estudiante&amp;nbsp;" style="ellipse;whiteSpace=wrap;html=1;" vertex="1" parent="1">
          <mxGeometry x="450" y="240" width="140" height="70" as="geometry" />
        </mxCell>
        <mxCell id="8Rmx1LLZE_sqg1d1QiVR-10" value="notificar a los padres por correo" style="ellipse;whiteSpace=wrap;html=1;" vertex="1" parent="1">
          <mxGeometry x="620" y="280" width="140" height="70" as="geometry" />
        </mxCell>
        <mxCell id="8Rmx1LLZE_sqg1d1QiVR-11" value="descargar lista de asistencia" style="ellipse;whiteSpace=wrap;html=1;" vertex="1" parent="1">
          <mxGeometry x="670" y="190" width="140" height="70" as="geometry" />
        </mxCell>
        <mxCell id="8Rmx1LLZE_sqg1d1QiVR-34" style="edgeStyle=orthogonalEdgeStyle;rounded=0;orthogonalLoop=1;jettySize=auto;html=1;exitX=1;exitY=0.5;exitDx=0;exitDy=0;entryX=0;entryY=1;entryDx=0;entryDy=0;" edge="1" parent="1" source="8Rmx1LLZE_sqg1d1QiVR-12" target="8Rmx1LLZE_sqg1d1QiVR-32">
          <mxGeometry relative="1" as="geometry" />
        </mxCell>
        <mxCell id="8Rmx1LLZE_sqg1d1QiVR-12" value="gestionar curso" style="ellipse;whiteSpace=wrap;html=1;" vertex="1" parent="1">
          <mxGeometry x="490" y="470" width="140" height="70" as="geometry" />
        </mxCell>
        <mxCell id="8Rmx1LLZE_sqg1d1QiVR-33" style="edgeStyle=orthogonalEdgeStyle;rounded=0;orthogonalLoop=1;jettySize=auto;html=1;exitX=1;exitY=0.5;exitDx=0;exitDy=0;entryX=0;entryY=0.5;entryDx=0;entryDy=0;" edge="1" parent="1" source="8Rmx1LLZE_sqg1d1QiVR-13" target="8Rmx1LLZE_sqg1d1QiVR-32">
          <mxGeometry relative="1" as="geometry" />
        </mxCell>
        <mxCell id="8Rmx1LLZE_sqg1d1QiVR-13" value="gestionar estudiantes en un curso" style="ellipse;whiteSpace=wrap;html=1;" vertex="1" parent="1">
          <mxGeometry x="630" y="390" width="140" height="70" as="geometry" />
        </mxCell>
        <mxCell id="8Rmx1LLZE_sqg1d1QiVR-35" style="edgeStyle=orthogonalEdgeStyle;rounded=0;orthogonalLoop=1;jettySize=auto;html=1;exitX=1;exitY=0.5;exitDx=0;exitDy=0;entryX=0.5;entryY=1;entryDx=0;entryDy=0;" edge="1" parent="1" source="8Rmx1LLZE_sqg1d1QiVR-14" target="8Rmx1LLZE_sqg1d1QiVR-32">
          <mxGeometry relative="1" as="geometry" />
        </mxCell>
        <mxCell id="8Rmx1LLZE_sqg1d1QiVR-14" value="gestionar profesores" style="ellipse;whiteSpace=wrap;html=1;" vertex="1" parent="1">
          <mxGeometry x="730" y="540" width="140" height="70" as="geometry" />
        </mxCell>
        <mxCell id="8Rmx1LLZE_sqg1d1QiVR-15" value="cerrar sesion" style="ellipse;whiteSpace=wrap;html=1;" vertex="1" parent="1">
          <mxGeometry x="880" y="270" width="140" height="70" as="geometry" />
        </mxCell>
        <mxCell id="8Rmx1LLZE_sqg1d1QiVR-18" style="edgeStyle=orthogonalEdgeStyle;rounded=0;orthogonalLoop=1;jettySize=auto;html=1;exitX=1;exitY=0.3333333333333333;exitDx=0;exitDy=0;exitPerimeter=0;entryX=0.012;entryY=0.777;entryDx=0;entryDy=0;entryPerimeter=0;" edge="1" parent="1" source="8Rmx1LLZE_sqg1d1QiVR-4" target="8Rmx1LLZE_sqg1d1QiVR-8">
          <mxGeometry relative="1" as="geometry">
            <Array as="points">
              <mxPoint x="400" y="290" />
              <mxPoint x="400" y="201" />
            </Array>
          </mxGeometry>
        </mxCell>
        <mxCell id="8Rmx1LLZE_sqg1d1QiVR-21" style="edgeStyle=orthogonalEdgeStyle;rounded=0;orthogonalLoop=1;jettySize=auto;html=1;exitX=0.5;exitY=0.5;exitDx=0;exitDy=0;exitPerimeter=0;entryX=0.084;entryY=0.73;entryDx=0;entryDy=0;entryPerimeter=0;" edge="1" parent="1" source="8Rmx1LLZE_sqg1d1QiVR-4" target="8Rmx1LLZE_sqg1d1QiVR-10">
          <mxGeometry relative="1" as="geometry" />
        </mxCell>
        <mxCell id="8Rmx1LLZE_sqg1d1QiVR-28" value="resvir notificasion" style="ellipse;whiteSpace=wrap;html=1;" vertex="1" parent="1">
          <mxGeometry x="540" y="760" width="140" height="70" as="geometry" />
        </mxCell>
        <mxCell id="8Rmx1LLZE_sqg1d1QiVR-30" value="estar prensente para tomar la asistencia" style="ellipse;whiteSpace=wrap;html=1;" vertex="1" parent="1">
          <mxGeometry x="430" y="610" width="140" height="70" as="geometry" />
        </mxCell>
        <mxCell id="8Rmx1LLZE_sqg1d1QiVR-32" value="eliminar , actualizar, crear" style="ellipse;whiteSpace=wrap;html=1;" vertex="1" parent="1">
          <mxGeometry x="880" y="400" width="140" height="70" as="geometry" />
        </mxCell>
      </root>
    </mxGraphModel>
  </diagram>
</mxfile>
